<?xml version="1.0" encoding="UTF-8"?>
<svg width="179px" height="179px" viewBox="0 0 179 179" version="1.1" xmlns="http://www.w3.org/2000/svg" xmlns:xlink="http://www.w3.org/1999/xlink" xmlns:sketch="http://www.bohemiancoding.com/sketch/ns">
    <!-- Generator: Sketch 3.3.3 (12081) - http://www.bohemiancoding.com/sketch -->
    <title>Oval 5 Copy 2 + Imported Layers + 1           2       </title>
    <desc>Created with Sketch.</desc>
    <defs></defs>
    <g id="Boostrap-3-Grid" stroke="none" stroke-width="1" fill="none" fill-rule="evenodd" sketch:type="MSPage">
        <g id="HOME" sketch:type="MSArtboardGroup" transform="translate(-241.000000, -1676.000000)">
            <g id="Oval-5-Copy-2-+-Imported-Layers-+-1-----------2-------" sketch:type="MSLayerGroup" transform="translate(241.000000, 1676.000000)">
                <circle id="Oval-5-Copy-2" fill="#0088C1" sketch:type="MSShapeGroup" cx="89.375" cy="89.5" r="89"></circle>
                <g id="Imported-Layers-+-1-----------2-------" transform="translate(21.250000, 59.498768)" sketch:type="MSShapeGroup">
                    <g id="Imported-Layers" transform="translate(0.052213, 0.207552)">
                        <path d="M0.36276976,0.315109866 L132.737938,0.315109866 L132.737938,60.0008168 L0.36276976,60.0008168 L0.36276976,0.315109866 Z" id="Fill-1" fill="#FFFFFF"></path>
                        <path d="M12.7586339,27.9278301 L17.407083,27.9278301 L17.407083,60.0008168 L12.7586339,60.0008168 L12.7586339,27.9278301 Z" id="Fill-2" fill="#0088C1"></path>
                        <path d="M23.0885207,39.2977737 L27.7369698,39.2977737 L27.7369698,60.0008168 L23.0885207,60.0008168 L23.0885207,39.2977737 Z" id="Fill-3" fill="#0088C1"></path>
                        <path d="M33.4184075,39.2977737 L38.0668566,39.2977737 L38.0668566,60.0008168 L33.4184075,60.0008168 L33.4184075,39.2977737 Z" id="Fill-4" fill="#0088C1"></path>
                        <path d="M43.7482943,39.2977737 L48.3967434,39.2977737 L48.3967434,60.0008168 L43.7482943,60.0008168 L43.7482943,39.2977737 Z" id="Fill-5" fill="#0088C1"></path>
                        <path d="M54.0781811,39.2977737 L58.7266302,39.2977737 L58.7266302,60.0008168 L54.0781811,60.0008168 L54.0781811,39.2977737 Z" id="Fill-6" fill="#0088C1"></path>
                        <path d="M64.4080679,27.9278301 L69.056517,27.9278301 L69.056517,60.0008168 L64.4080679,60.0008168 L64.4080679,27.9278301 Z" id="Fill-7" fill="#0088C1"></path>
                        <path d="M74.7379547,39.2977737 L79.3864038,39.2977737 L79.3864038,60.0008168 L74.7379547,60.0008168 L74.7379547,39.2977737 Z" id="Fill-8" fill="#0088C1"></path>
                        <path d="M85.0678415,39.2977737 L89.7162905,39.2977737 L89.7162905,60.0008168 L85.0678415,60.0008168 L85.0678415,39.2977737 Z" id="Fill-9" fill="#0088C1"></path>
                        <path d="M95.3977283,39.2977737 L100.046177,39.2977737 L100.046177,60.0008168 L95.3977283,60.0008168 L95.3977283,39.2977737 Z" id="Fill-10" fill="#0088C1"></path>
                        <path d="M105.727615,39.2977737 L110.376064,39.2977737 L110.376064,60.0008168 L105.727615,60.0008168 L105.727615,39.2977737 Z" id="Fill-11" fill="#0088C1"></path>
                        <path d="M116.057502,27.9278301 L120.705951,27.9278301 L120.705951,60.0008168 L116.057502,60.0008168 L116.057502,27.9278301 Z" id="Fill-12" fill="#0088C1"></path>
                    </g>
                </g>
            </g>
        </g>
    </g>
</svg>